<?xml version="1.0" standalone="no"?>
<!DOCTYPE svg PUBLIC "-//W3C//DTD SVG 20010904//EN"
 "http://www.w3.org/TR/2001/REC-SVG-20010904/DTD/svg10.dtd">
<svg version="1.0" xmlns="http://www.w3.org/2000/svg"
 width="300.000000pt" height="300.000000pt" viewBox="0 0 300.000000 300.000000"
 preserveAspectRatio="xMidYMid meet">
<metadata>
Created by potrace 1.10, written by Peter Selinger 2001-2011
</metadata>
<g transform="translate(0.000000,300.000000) scale(0.100000,-0.100000)"
fill="#000000" stroke="none">
<path d="M1895 2556 c-92 -15 -169 -38 -237 -72 -56 -28 -60 -34 -43 -58 14
-18 16 -18 62 4 77 36 146 58 229 70 84 13 223 5 248 -13 10 -8 36 -106 71
-267 31 -140 83 -371 116 -513 33 -142 58 -262 54 -265 -3 -3 -41 -7 -83 -8
-227 -5 -460 -98 -631 -252 -38 -34 -75 -62 -82 -62 -7 0 -42 18 -78 39 -144
86 -326 119 -500 91 -34 -6 -108 -26 -163 -44 -86 -29 -101 -32 -114 -19 -8 8
-14 19 -14 24 0 6 -27 171 -61 367 -33 196 -69 411 -80 477 -11 66 -22 128
-25 137 -4 13 7 23 43 41 126 63 254 90 403 85 l105 -3 0 25 c0 22 -6 26 -50
33 -57 9 -189 2 -267 -14 -29 -6 -99 -29 -155 -51 -106 -41 -149 -74 -138
-109 5 -13 -9 -28 -55 -61 -33 -23 -63 -52 -66 -64 -3 -12 15 -149 41 -305 25
-156 66 -408 91 -559 25 -151 51 -317 59 -369 15 -98 32 -131 68 -131 11 0 56
23 100 51 173 111 297 153 457 153 96 0 114 -4 210 -38 156 -55 177 -59 237
-46 38 8 72 26 121 65 134 104 270 162 434 184 103 14 173 5 325 -40 80 -23
107 -27 123 -19 31 17 43 46 31 83 -5 18 -28 120 -51 227 -24 107 -76 339
-117 515 -40 176 -85 372 -99 435 -15 63 -33 122 -41 131 -8 9 -42 25 -77 35
-55 15 -64 22 -72 48 -6 19 -21 36 -44 47 -48 24 -185 31 -285 15z m430 -188
c6 -5 133 -553 185 -793 18 -82 44 -201 59 -262 15 -62 27 -113 27 -113 -1 0
-30 10 -66 21 -94 31 -286 37 -399 14 -144 -29 -294 -94 -418 -179 -93 -63
-114 -67 -195 -35 -155 61 -363 77 -509 40 -113 -29 -229 -77 -305 -126 -38
-24 -70 -42 -72 -40 -3 2 -42 241 -102 625 -11 69 -35 217 -54 330 l-34 205
32 27 c17 15 34 27 37 28 6 0 19 -76 119 -670 61 -362 51 -351 248 -283 106
37 109 38 262 38 126 0 165 -3 210 -19 60 -20 174 -75 169 -81 -2 -2 -44 11
-94 28 -78 26 -108 31 -221 35 -178 6 -306 -23 -475 -108 -60 -31 -76 -48 -66
-74 4 -10 32 0 114 40 152 76 238 97 393 98 107 0 140 -4 230 -28 165 -45 182
-43 340 32 306 145 372 164 555 166 72 1 158 -3 193 -8 59 -8 62 -8 62 12 0
28 -48 42 -176 49 -207 12 -436 -52 -612 -171 -66 -44 -63 -25 4 26 148 113
374 188 567 188 69 0 84 3 104 22 13 12 23 32 23 45 0 21 -47 234 -90 408 -26
105 -107 460 -115 507 l-7 36 36 -12 c20 -7 38 -15 41 -18z m156 -1192 c104
-25 128 -37 135 -69 3 -15 4 -30 2 -32 -1 -2 -42 10 -89 26 -48 16 -121 33
-163 37 -199 21 -434 -50 -620 -187 -106 -79 -125 -82 -254 -38 -125 43 -229
67 -292 67 -131 0 -330 -68 -469 -161 -75 -50 -90 -51 -91 -9 0 46 228 164
388 201 123 29 259 23 382 -16 193 -60 187 -59 229 -47 21 7 65 33 97 58 103
81 255 147 410 179 81 17 249 13 335 -9z"/>
<path d="M1305 2481 c-23 -10 -53 -33 -68 -51 -51 -60 -61 -89 -62 -180 0 -73
4 -92 27 -136 31 -60 88 -112 129 -121 16 -3 29 -10 29 -15 0 -5 11 -83 25
-171 13 -89 36 -238 50 -331 32 -209 52 -246 137 -246 38 0 78 32 97 78 12 28
5 64 -67 368 l-80 337 29 24 c15 13 40 49 55 80 47 101 21 217 -69 305 -77 75
-154 95 -232 59z m133 -55 c74 -39 125 -125 126 -211 2 -106 -61 -175 -159
-175 -65 0 -110 28 -144 90 -33 59 -35 179 -5 231 41 69 120 97 182 65z m100
-743 c39 -170 72 -322 72 -339 0 -52 -41 -72 -74 -35 -13 14 -28 89 -57 282
-21 145 -43 288 -49 318 -14 76 -13 81 13 81 21 0 26 -17 95 -307z"/>
<path d="M1312 2368 c-16 -16 -15 -33 3 -48 12 -10 18 -10 30 0 20 17 19 37
-3 49 -13 7 -23 6 -30 -1z"/>
<path d="M1453 2321 c53 -57 62 -81 54 -159 -4 -44 -3 -51 5 -32 25 65 3 151
-52 208 -52 52 -57 37 -7 -17z"/>
<path d="M1875 2370 c-103 -27 -170 -55 -173 -74 -5 -25 25 -30 66 -12 60 26
158 47 251 54 77 6 86 9 86 27 0 18 -7 20 -80 22 -51 1 -105 -5 -150 -17z"/>
<path d="M1930 2255 c-113 -23 -230 -70 -230 -94 0 -5 6 -13 13 -19 9 -8 26
-5 62 13 62 29 227 65 299 65 55 0 77 15 53 39 -14 14 -115 13 -197 -4z"/>
<path d="M810 2159 c-101 -28 -124 -40 -128 -68 -3 -21 -1 -23 25 -18 15 3 47
12 70 21 64 24 180 39 255 34 51 -4 71 -2 79 9 23 27 -7 38 -119 40 -82 2
-124 -2 -182 -18z"/>
<path d="M1948 2135 c-84 -17 -228 -75 -242 -97 -8 -13 -7 -21 1 -29 10 -10
28 -5 80 19 83 38 182 62 288 71 71 5 80 8 80 26 0 18 -7 20 -70 22 -38 1
-100 -5 -137 -12z"/>
<path d="M905 2044 c-88 -22 -198 -60 -202 -72 -3 -7 1 -20 9 -29 14 -13 19
-13 45 0 75 39 256 63 362 47 40 -6 65 20 43 42 -13 13 -214 22 -257 12z"/>
<path d="M2020 2023 c-64 -11 -177 -46 -235 -72 -48 -22 -65 -35 -65 -50 0
-31 19 -30 95 4 107 49 214 71 358 75 5 0 7 10 5 23 -3 20 -9 22 -68 23 -36 1
-76 0 -90 -3z"/>
<path d="M911 1910 c-73 -15 -169 -50 -182 -66 -10 -12 -9 -18 2 -30 14 -13
20 -12 60 5 100 44 259 59 375 35 24 -5 33 -2 38 12 14 37 -17 49 -137 51 -62
1 -132 -2 -156 -7z"/>
<path d="M2037 1900 c-121 -21 -307 -96 -307 -123 0 -35 23 -36 89 -3 103 52
204 76 328 80 55 1 58 2 58 26 0 24 -3 25 -60 27 -33 0 -82 -3 -108 -7z"/>
<path d="M894 1771 c-107 -29 -144 -47 -144 -70 0 -25 19 -31 50 -15 83 41
252 62 359 44 61 -10 75 -10 82 1 24 39 -14 52 -156 56 -94 2 -135 -1 -191
-16z"/>
<path d="M2067 1780 c-119 -20 -301 -93 -314 -126 -3 -8 0 -20 6 -28 9 -11 26
-6 94 28 98 49 169 68 292 75 77 5 90 9 93 25 2 10 -2 22 -10 27 -16 10 -95
10 -161 -1z"/>
<path d="M2065 1655 c-85 -16 -129 -32 -223 -79 -72 -37 -77 -41 -66 -70 8
-22 16 -20 74 15 84 52 182 80 300 88 104 6 105 6 105 31 0 24 -3 25 -60 27
-33 1 -91 -4 -130 -12z"/>
<path d="M891 1634 c-103 -30 -121 -40 -121 -64 0 -30 14 -32 67 -9 105 45
259 60 365 35 49 -11 60 -11 69 0 33 40 -40 64 -193 63 -79 0 -122 -6 -187
-25z"/>
<path d="M2097 1544 c-125 -22 -312 -102 -312 -133 0 -31 30 -34 73 -7 85 53
327 116 388 100 28 -7 51 20 34 41 -15 19 -77 18 -183 -1z"/>
<path d="M943 1516 c-92 -21 -153 -51 -153 -75 0 -31 12 -32 76 -6 87 35 225
51 316 35 113 -19 123 -18 126 6 2 17 -5 25 -30 34 -50 19 -261 22 -335 6z"/>
<path d="M1030 1404 c-59 -11 -114 -26 -166 -45 -46 -17 -55 -24 -52 -42 4
-28 24 -27 103 4 54 21 74 23 205 22 80 -1 161 -3 180 -5 27 -2 35 1 38 15 6
29 -58 48 -177 52 -58 2 -117 2 -131 -1z"/>
<path d="M2167 942 c-30 -33 19 -72 51 -40 16 16 15 23 -4 42 -20 20 -27 20
-47 -2z"/>
<path d="M2670 915 c-11 -13 -11 -19 3 -33 15 -15 19 -15 32 -1 14 14 14 17
-3 32 -17 16 -20 16 -32 2z"/>
<path d="M1110 760 c-9 -16 -8 -25 1 -36 27 -33 75 -2 52 35 -15 24 -40 25
-53 1z"/>
<path d="M1632 728 c-18 -18 -14 -46 9 -58 16 -9 25 -8 40 6 23 21 24 28 3 48
-19 19 -36 20 -52 4z"/>
</g>
</svg>
